<?xml version="1.0"?>
<svg xmlns="http://www.w3.org/2000/svg" id="Capa_1" enable-background="new 0 0 511.997 511.997" height="512px" viewBox="0 0 511.997 511.997" width="512px" class=""><g><g><path d="m359.114 461.295v-71.401-34.83c0-10.783-8.773-19.557-19.557-19.557h-167.284c-10.783 0-19.557 8.773-19.557 19.557v106.231c0 10.783 8.773 19.557 19.557 19.557h167.284c10.783 0 19.557-8.774 19.557-19.557zm-191.398-106.232c0-2.47 2.087-4.557 4.557-4.557h167.284c2.47 0 4.557 2.087 4.557 4.557v34.83c0 2.47-2.087 4.557-4.557 4.557h-167.284c-2.47 0-4.557-2.087-4.557-4.557zm0 106.232v-52.381c1.521.365 3.248.536 4.557.536h167.284c1.37 0 3.068-.179 4.557-.536v52.381c0 2.47-2.087 4.557-4.557 4.557h-167.284c-2.47 0-4.557-2.087-4.557-4.557z" data-original="#000000" class="active-path" data-old_color="#000000" fill="#FFFFFF"/><path d="m412.756 293.467h-14.63v-48.787c6.999-5.123 11.556-13.393 11.556-22.711v-45.216c0-4.143-3.357-7.5-7.5-7.5s-7.5 3.357-7.5 7.5v45.216c0 6.802-5.181 12.321-11.685 13.049-.479.055-.962.084-1.448.084h-22.436v-15.392h3.154c10.379 0 18.822-8.443 18.822-18.822v-16.288c0-10.379-8.443-18.822-18.822-18.822h-3.154v-13.599c0-6.721-5.468-12.188-12.188-12.188h-26.123c-6.721 0-12.188 5.468-12.188 12.188v13.599h-3.155c-10.379 0-18.822 8.443-18.822 18.822v16.288c0 10.379 8.443 18.822 18.822 18.822h3.155v15.393h-105.399v-15.393h3.155c10.379 0 18.822-8.443 18.822-18.822v-16.288c0-10.379-8.443-18.822-18.822-18.822h-3.155v-13.599c0-6.721-5.468-12.188-12.188-12.188h-26.122c-6.721 0-12.188 5.468-12.188 12.188v13.599h-3.155c-10.379 0-18.822 8.443-18.822 18.822v16.288c0 10.379 8.443 18.822 18.822 18.822h3.155v15.393h-22.269c-7.065 0-13.134-5.748-13.134-13.133v-116.808c0-6.845 5.321-12.722 12.49-13.091 1.786-.113 252.624.002 252.624.002 6.832.457 12.254 6.144 12.254 13.089v36.592c0 4.143 3.357 7.5 7.5 7.5s7.5-3.357 7.5-7.5v-36.592c0-12.597-8.323-23.287-19.758-26.861v-52.213c0-14.385-11.702-26.088-26.087-26.088-6.846 0-40.262 0-46.928 0-14.385 0-26.088 11.703-26.088 26.088v26.287c-9.52-9.264-21.984-14.196-34.907-14.196-12.867 0-25.347 4.893-34.907 14.196v-26.287c0-14.385-11.702-26.088-26.087-26.088-6.73 0-40.152 0-46.929 0-14.385 0-26.087 11.703-26.087 26.088v52.271c-11.348 3.625-19.591 14.269-19.591 26.804v116.807c0 9.318 4.557 17.588 11.557 22.711v48.786h-14.63c-17.037 0-30.897 13.86-30.897 30.897v140.66c0 17.037 13.86 30.897 30.897 30.897h18.869c5.518 9.595 15.867 16.075 27.707 16.075h92.598c4.143 0 7.5-3.357 7.5-7.5s-3.357-7.5-7.5-7.5h-92.598c-9.541 0-16.942-7.834-16.946-16.94v-.007c0-6.236 0-215.771 0-229.992.019.001.038 0 .057.002.503.027 1.01.042 1.52.042h22.269v11.157c-1.923 1.358-3.182 3.593-3.182 6.126s1.259 4.768 3.182 6.126v27.029c0 1.305.1 2.588.292 3.84 1.855 12.107 12.34 21.41 24.958 21.41 12.618 0 23.103-9.303 24.958-21.41.192-1.252.292-2.535.292-3.84v-27.029c1.923-1.358 3.182-3.593 3.182-6.126s-1.259-4.768-3.182-6.126v-11.157h105.398v11.157c-1.923 1.358-3.182 3.593-3.182 6.126s1.259 4.768 3.182 6.126v27.029c0 13.923 11.327 25.25 25.25 25.25s25.25-11.327 25.25-25.25v-27.029c1.923-1.358 3.182-3.593 3.182-6.126s-1.259-4.768-3.182-6.126v-11.157h22.436c.51 0 1.016-.015 1.52-.042.019-.001.038-.001.057-.002v229.992.007c-.004 9.105-7.404 16.94-16.946 16.94h-92.766c-4.143 0-7.5 3.357-7.5 7.5s3.357 7.5 7.5 7.5h92.766c11.841 0 22.189-6.48 27.707-16.075h18.869c17.037 0 30.897-13.86 30.897-30.897 0-2.857 0-138.069 0-140.66 0-17.037-13.861-30.897-30.898-30.897zm-37.832-267.379v50.94h-13.487v-62.028h2.4c6.114 0 11.087 4.974 11.087 11.088zm-28.487-11.088v62.028h-12.127v-62.028zm-40.615 11.088c0-6.114 4.974-11.088 11.088-11.088h2.4v62.028h-13.488zm-49.907 27.092c15.191 0 28.476 9.977 33.217 23.849h-66.433c4.74-13.873 18.025-23.849 33.216-23.849zm-49.908-27.092v50.94h-13.487v-62.028h2.4c6.114 0 11.087 4.974 11.087 11.088zm-28.487-11.088v62.028h-12.127v-62.028zm-40.615 11.088c0-6.114 4.974-11.088 11.087-11.088h2.401v62.028h-13.488zm-53.562 298.276c0-8.766 7.132-15.897 15.897-15.897h14.63v56.512h-30.527zm30.539 156.558h-14.641c-8.766 0-15.897-7.132-15.897-15.897v-85.046h30.527v100.072.001.001c0 .29.004.58.011.869zm92.489-300.145c2.107 0 3.822 1.715 3.822 3.822v16.288c0 2.107-1.715 3.822-3.822 3.822h-3.155v-23.933h3.155zm-18.156 23.933h-20.499v-23.933h20.499zm-20.499-49.72h20.499v10.787h-20.499zm-18.155 49.72c-2.107 0-3.822-1.715-3.822-3.822v-16.288c0-2.107 1.715-3.822 3.822-3.822h3.155v23.933h-3.155zm38.654 15v40.176h-20.499c0-22.39 0-15.884 0-40.176zm-20.499 55.176h20.499v25.655c0 5.652-4.598 10.25-10.25 10.25-5.651 0-10.249-4.598-10.249-10.25zm194.552-94.109c2.107 0 3.822 1.715 3.822 3.822v16.288c0 2.107-1.715 3.822-3.822 3.822h-3.154v-23.933h3.154zm-18.154 23.933h-20.5v-23.933h20.5zm-20.5-49.72h20.5v10.787h-20.5zm-18.156 49.72c-2.107 0-3.822-1.715-3.822-3.822v-16.288c0-2.107 1.715-3.822 3.822-3.822h3.155v23.933h-3.155zm38.656 15v40.176h-20.5c0-22.39 0-15.884 0-40.176zm-10.25 91.081c-5.652 0-10.25-4.598-10.25-10.25v-25.655h20.5v25.655c0 5.652-4.598 10.25-10.25 10.25zm78.892-2.324c8.766 0 15.897 7.132 15.897 15.897v40.614h-30.527v-56.512h14.63zm15.898 156.557c0 8.766-7.132 15.897-15.897 15.897h-14.642c.008-.289.012-.579.012-.869v-.001-.001-100.071h30.527z" data-original="#000000" class="active-path" data-old_color="#000000" fill="#FFFFFF"/></g></g> </svg>
