<?xml version="1.0"?>
<svg xmlns="http://www.w3.org/2000/svg" viewBox="0 0 512 512" width="512px" height="512px" class=""><g><g id="Out_line" data-name="Out line"><path d="M216,464h-8v-1.01A32.00775,32.00775,0,0,0,216,464Z" data-original="#000000" class="active-path" data-old_color="#000000" fill="#FFFFFF"/><path d="M472,176h-8v-8.4a20.00224,20.00224,0,0,0-4-39.6H196a20.00224,20.00224,0,0,0-4,39.6V176h-8a24,24,0,0,0,0,48h8V360h16V168H448v8H424a24,24,0,0,0,0,48h24V352h16V224h8a24,24,0,0,0,0-48ZM192,208h-8a8,8,0,0,1,0-16h8Zm4-56a4,4,0,0,1,0-8H460a4,4,0,0,1,0,8Zm276,56H424a8,8,0,0,1,0-16h48a8,8,0,0,1,0,16Z" data-original="#000000" class="active-path" data-old_color="#000000" fill="#FFFFFF"/><path d="M250.34277,109.65674l-8-8a30.62622,30.62622,0,0,1,.001-43.314,14.62673,14.62673,0,0,0,0-20.68554l-8.001-8.00049,11.31446-11.31348,8,8a30.62622,30.62622,0,0,1-.001,43.314,14.62673,14.62673,0,0,0,0,20.68554l8.001,8.00049Z" data-original="#000000" class="active-path" data-old_color="#000000" fill="#FFFFFF"/><path d="M330.34277,109.65674l-8-8a30.62622,30.62622,0,0,1,.001-43.314,14.62673,14.62673,0,0,0,0-20.68554l-8.001-8.00049,11.31446-11.31348,8,8a30.62622,30.62622,0,0,1-.001,43.314,14.62673,14.62673,0,0,0,0,20.68554l8.001,8.00049Z" data-original="#000000" class="active-path" data-old_color="#000000" fill="#FFFFFF"/><path d="M410.34277,109.65674l-8-8a30.62622,30.62622,0,0,1,.001-43.314,14.62673,14.62673,0,0,0,0-20.68554l-8.001-8.00049,11.31446-11.31348,8,8a30.62622,30.62622,0,0,1-.001,43.314,14.62673,14.62673,0,0,0,0,20.68554l8.001,8.00049Z" data-original="#000000" class="active-path" data-old_color="#000000" fill="#FFFFFF"/><path d="M480,368H368a15.99656,15.99656,0,0,0-13.835,8H136a7.99782,7.99782,0,0,0-8,8v.31006L111.45,381.83a41.056,41.056,0,0,0-7.49-.44c.03-.46008.04-.93.04-1.39a28.14177,28.14177,0,0,0-10.05-21.48,27.98858,27.98858,0,1,0-53.23-4.15,28.0071,28.0071,0,0,0-14.66992,36.15,27.98009,27.98009,0,0,0,5.98,46.78A27.67058,27.67058,0,0,0,35,448.53,23.99811,23.99811,0,0,0,40,496H376a24,24,0,0,0,0-48H323.7A31.989,31.989,0,0,0,276.01,407.02a32.03206,32.03206,0,0,0-40.01-.01,32.00626,32.00626,0,0,0-49.56006,37.25A64.15727,64.15727,0,0,1,144.5,392H352v16H336v16h18.165A15.99656,15.99656,0,0,0,368,432H480a16.01833,16.01833,0,0,0,16-16V384A16.01833,16.01833,0,0,0,480,368ZM40,480a8,8,0,0,1,0-16h.29a28.12188,28.12188,0,0,0-.29,4,27.74966,27.74966,0,0,0,2.71,12Zm-8-68a12.05022,12.05022,0,0,1,7.82007-11.25,8.00953,8.00953,0,0,0,3.2-12.81006A11.98553,11.98553,0,0,1,52,368a8.0049,8.0049,0,0,0,6.3999-12.81006A11.848,11.848,0,0,1,56,348a12,12,0,1,1,20.98,7.93994,8.00953,8.00953,0,0,0,3.2,12.81006A12.05022,12.05022,0,0,1,88,380a11.82129,11.82129,0,0,1-1.59009,5.93994v.01h-.01A41.27389,41.27389,0,0,0,67.96,405.05005,7.99831,7.99831,0,0,0,56,412a12,12,0,0,1-24,0Zm36,68a11.98553,11.98553,0,0,1-8.98-19.93994,8.00953,8.00953,0,0,0-3.2-12.81006,12.08353,12.08353,0,0,1-7.26-7.63A27.93923,27.93923,0,0,0,64,431.58c.3999.41.81006.81,1.24,1.19006a41.31232,41.31232,0,0,0,11.55,19.78,8.00211,8.00211,0,0,0,.81006,8.26A11.848,11.848,0,0,1,80,468,12.00943,12.00943,0,0,1,68,480Zm228-64a16,16,0,1,1-16,16A16.02116,16.02116,0,0,1,296,416Zm-53.33008,7.16992a15.97441,15.97441,0,0,1,23.73-3.31994,31.95572,31.95572,0,0,0,0,24.29992,15.98857,15.98857,0,0,1-23.73-20.98ZM216,416a15.903,15.903,0,0,1,10.3999,3.85,31.95572,31.95572,0,0,0,0,24.29992A15.99712,15.99712,0,1,1,216,416Zm-8,48v-1.01a32.00775,32.00775,0,0,0,8,1.01H376a8,8,0,0,1,0,16H93.29A28.10937,28.10937,0,0,0,95.72,464Zm-47.96-16h-54.73a25.31489,25.31489,0,1,1,3.76-50.3501L129.77,400.76A80.19863,80.19863,0,0,0,160.04,448ZM480,416H368V384H480l.00977,31.99951Z" data-original="#000000" class="active-path" data-old_color="#000000" fill="#FFFFFF"/></g></g> </svg>
