<?xml version="1.0"?>
<svg xmlns="http://www.w3.org/2000/svg" id="Capa_1" enable-background="new 0 0 512 512" height="512px" viewBox="0 0 512 512" width="512px" class=""><g><g><path d="m504.5 208.654h-7.5v-62.447c0-4.142-3.358-7.5-7.5-7.5h-28.928v-83.181l22.665-6.87c6.135-1.86 11.178-5.997 14.202-11.65 3.023-5.653 3.664-12.145 1.805-18.28s-5.997-11.179-11.651-14.202c-5.655-3.024-12.146-3.664-18.279-1.804l-148.708 45.073c-3.964 1.201-6.204 5.389-5.003 9.353 1.202 3.964 5.391 6.202 9.353 5.002l148.71-45.074c2.299-.698 4.733-.457 6.853.677 2.121 1.134 3.672 3.025 4.369 5.326.698 2.301.457 4.735-.676 6.854-1.134 2.12-3.025 3.671-5.326 4.369l-28.003 8.488c-.024.007-.048.014-.073.022 0 0-315.79 95.75-316.105 95.896h-62.336l223.861-67.852c3.964-1.201 6.204-5.389 5.002-9.353-1.202-3.965-5.392-6.203-9.353-5.002l-271.654 82.339c-3.631 1.101-5.807 4.707-5.225 8.352v61.465h-7.5c-4.142 0-7.5 3.358-7.5 7.5v90.414c0 4.142 3.358 7.5 7.5 7.5h22v184.625c0 6.414 5.218 11.631 11.631 11.631h19.409c5.787 0 10.623-4.152 11.498-9.873l28.506-186.383h79.659c4.142 0 7.5-3.358 7.5-7.5s-3.358-7.5-7.5-7.5h-165.203v-75.414h21.269v16.966 33.605c0 4.142 3.358 7.5 7.5 7.5h424.462c4.142 0 7.5-3.358 7.5-7.5v-33.606-16.966h21.269v75.414h-286.797c-4.142 0-7.5 3.358-7.5 7.5s3.358 7.5 7.5 7.5h201.253l28.506 186.383c.875 5.721 5.71 9.873 11.498 9.873h19.409c6.414 0 11.631-5.218 11.631-11.631v-184.625h22c4.142 0 7.5-3.358 7.5-7.5v-90.414c0-4.142-3.358-7.5-7.5-7.5zm-446.853 286.67h-13.147v-181.15h40.854zm409.853 0h-13.148l-27.706-181.15h40.854zm-21.928-435.252v78.634h-259.437zm-394.303 188.048h15.319v18.605h-15.319zm30.319 0h15.319v18.605h-15.319zm30.319 0h15.318v18.605h-15.318zm30.318 0h15.319v18.605h-15.319zm30.319 0h15.319v18.605h-15.319zm30.319 0h15.318v18.605h-15.318zm30.318 0h15.319v18.605h-15.319zm30.319 0h15.319v18.605h-15.319zm30.319 0h15.318v18.605h-15.318zm30.318 0h15.319v18.605h-15.319zm30.319 0h15.319v18.605h-15.319zm30.319 0h15.318v18.605h-15.318zm30.318 0h15.319v18.605h-15.319zm45.638 18.605h-15.319v-18.605h15.319zm7.5-58.071c-4.142 0-7.5 3.358-7.5 7.5v16.966h-409.462v-16.966c0-4.142-3.358-7.5-7.5-7.5h-13.769v-54.947h452v54.947z" data-original="#000000" class="active-path" data-old_color="#000000" fill="#FFFFFF"/><path d="m341.955 173.6h-171.91c-4.142 0-7.5 3.358-7.5 7.5v25.054c0 4.142 3.358 7.5 7.5 7.5h171.909c4.142 0 7.5-3.358 7.5-7.5v-25.054c.001-4.142-3.357-7.5-7.499-7.5zm-7.5 25.054h-156.91v-10.054h156.909v10.054z" data-original="#000000" class="active-path" data-old_color="#000000" fill="#FFFFFF"/><path d="m340.485 352.43h-158.061c-15.949 0-28.924 12.975-28.924 28.924v16.365c0 14.74 11.086 26.932 25.356 28.696v74.072c0 5.515 4.751 9.836 10.816 9.836h15.579c5.237 0 9.599-3.245 10.607-7.891l16.458-75.789h61.365l16.457 75.788c1.009 4.646 5.371 7.892 10.608 7.892h15.579c6.065 0 10.816-4.32 10.816-9.836v-74.627c12.748-3.016 22.266-14.485 22.266-28.142v-16.365c.002-15.947-12.973-28.923-28.922-28.923zm-138.431 142.894h-8.197v-68.68h23.111zm121.892 0-14.914-68.68h23.111v68.68zm30.463-97.604c0 7.678-6.247 13.924-13.924 13.924h-158.061c-7.678 0-13.924-6.246-13.924-13.924v-16.365c0-7.678 6.247-13.924 13.924-13.924h158.061c7.678 0 13.924 6.246 13.924 13.924z" data-original="#000000" class="active-path" data-old_color="#000000" fill="#FFFFFF"/></g></g> </svg>
