<?xml version="1.0"?>
<svg xmlns="http://www.w3.org/2000/svg" viewBox="0 0 512 512" width="512px" height="512px" class=""><g><g id="_01-symbol" data-name="01-symbol"><g id="filled_outline" data-name="filled outline"><path d="M487.153,283.313C474.517,250.229,440.2,228,401.76,228c-29.5,0-58.52,11.986-81.722,33.75a141.082,141.082,0,0,0-22.271,26.861C314.737,238.213,332,178.473,332,144c0-68.187-64.758-133.729-67.515-136.485a12,12,0,0,0-16.97,0C244.758,10.271,180,75.813,180,144c0,34.473,17.263,94.213,34.233,144.611a141.082,141.082,0,0,0-22.271-26.861C168.76,239.986,139.738,228,110.24,228c-38.44,0-72.757,22.229-85.393,55.313-12.2,31.934-1.507,66.061,29.324,93.632a12,12,0,0,0,20-8.927c.029-20.066,9.934-30.386,18.239-35.51,12.855-7.932,30.724-8.645,44.465-1.775a41.984,41.984,0,0,1,5.908,3.608,35.973,35.973,0,0,0,20,61.277c-1.928,14.765-7.035,30.523-15.279,47.017A12,12,0,0,0,158.24,460c14.061,0,40.862-14.64,58.611-43.814C213.625,429.508,212,440.15,212,448c0,38.968,37.056,57.944,38.633,58.733a12,12,0,0,0,10.734,0C262.944,505.944,300,486.968,300,448c0-7.85-1.625-18.492-4.851-31.814C312.9,445.36,339.7,460,353.76,460a12,12,0,0,0,10.734-17.365c-8.244-16.494-13.351-32.252-15.279-47.017a35.973,35.973,0,0,0,20-61.277,41.984,41.984,0,0,1,5.908-3.608c13.741-6.87,31.611-6.157,44.465,1.775,8.305,5.124,18.21,15.444,18.239,35.51a12,12,0,0,0,20,8.927C488.66,349.374,499.348,315.247,487.153,283.313ZM256,33.811C272.658,53.1,308,99.3,308,144c0,31.058-17.493,96.4-48.125,180h-7.75C221.493,240.4,204,175.058,204,144,204,99.3,239.346,53.1,256,33.811ZM147.607,309.267c-21.22-10.61-47.834-9.5-67.8,2.816a60.317,60.317,0,0,0-24.962,29.83c-11.154-16.277-13.877-33.538-7.576-50.037C56.235,268.4,82.13,252,110.24,252c45.3,0,81.789,35.149,94.836,72H168c-.32,0-.637.016-.956.024A66.306,66.306,0,0,0,147.607,309.267Zm34,112.56A146.418,146.418,0,0,0,186.9,396h13.6A89.905,89.905,0,0,1,181.608,421.827ZM256,481.851c-7.464-5.37-20-16.912-20-33.851,0-9.969,4.039-28.257,11.443-52h17.114c7.4,23.743,11.443,42.031,11.443,52C276,464.95,263.448,476.5,256,481.851ZM311.494,396h13.6a146.418,146.418,0,0,0,5.294,25.827A89.905,89.905,0,0,1,311.494,396ZM344,372H168a12,12,0,0,1,0-24H344a12,12,0,0,1,0,24Zm113.156-30.087a60.317,60.317,0,0,0-24.962-29.83c-19.968-12.32-46.581-13.426-67.8-2.816a66.306,66.306,0,0,0-19.437,14.757c-.319-.008-.636-.024-.956-.024H306.924c13.047-36.851,49.541-72,94.836-72,28.11,0,54.005,16.4,62.972,39.876C471.033,308.375,468.31,325.636,457.156,341.913Z" data-original="#000000" class="active-path" data-old_color="#000000" fill="#FFFFFF"/></g></g></g> </svg>
